<svg preserveAspectRatio="none" width="100%" height="100%" overflow="visible" style="display: block;" viewBox="0 0 16 13.7044" fill="none" xmlns="http://www.w3.org/2000/svg">
<path id="Vector" d="M16 6.84662C15.9944 6.24536 15.7522 5.6705 15.3257 5.24662L10.4229 0.332335C10.2087 0.119477 9.91907 0 9.61714 0C9.31522 0 9.02556 0.119477 8.81143 0.332335C8.70431 0.438578 8.61929 0.564979 8.56127 0.704247C8.50325 0.843515 8.47337 0.992893 8.47337 1.14376C8.47337 1.29463 8.50325 1.44401 8.56127 1.58328C8.61929 1.72255 8.70431 1.84895 8.81143 1.95519L12.5714 5.70376H1.14286C0.839753 5.70376 0.549063 5.82417 0.334735 6.0385C0.120408 6.25283 0 6.54352 0 6.84662C0 7.14972 0.120408 7.44041 0.334735 7.65474C0.549063 7.86907 0.839753 7.98948 1.14286 7.98948H12.5714L8.81143 11.7495C8.59622 11.9632 8.47472 12.2536 8.47365 12.5569C8.47258 12.8601 8.59203 13.1514 8.80571 13.3666C9.0194 13.5818 9.30983 13.7033 9.6131 13.7044C9.91638 13.7055 10.2077 13.586 10.4229 13.3723L15.3257 8.45805C15.755 8.03136 15.9974 7.45185 16 6.84662Z" fill="var(--fill-0, #EC6325)"/>
</svg>
