<svg preserveAspectRatio="none" width="100%" height="100%" overflow="visible" style="display: block;" viewBox="0 0 16 16" fill="none" xmlns="http://www.w3.org/2000/svg">
<g id="location-crosshairs (1) 1" clip-path="url(#clip0_0_21)">
<path id="Vector" d="M8 4.66667C6.162 4.66667 4.66667 6.162 4.66667 8C4.66667 9.838 6.162 11.3333 8 11.3333C9.838 11.3333 11.3333 9.838 11.3333 8C11.3333 6.162 9.838 4.66667 8 4.66667ZM8 10C6.89733 10 6 9.10267 6 8C6 6.89733 6.89733 6 8 6C9.10267 6 10 6.89733 10 8C10 9.10267 9.10267 10 8 10ZM15.3333 7.33333H14.6333C14.3193 4.18867 11.8113 1.68 8.66667 1.36667V0.666667C8.66667 0.298 8.368 0 8 0C7.632 0 7.33333 0.298 7.33333 0.666667V1.36667C4.18867 1.68 1.68 4.18867 1.36667 7.33333H0.666667C0.298667 7.33333 0 7.63133 0 8C0 8.36867 0.298667 8.66667 0.666667 8.66667H1.36667C1.68067 11.8113 4.18867 14.32 7.33333 14.6333V15.3333C7.33333 15.702 7.632 16 8 16C8.368 16 8.66667 15.702 8.66667 15.3333V14.6333C11.8113 14.3193 14.32 11.8113 14.6333 8.66667H15.3333C15.7013 8.66667 16 8.36867 16 8C16 7.63133 15.7013 7.33333 15.3333 7.33333ZM8 13.3333C5.05933 13.3333 2.66667 10.9407 2.66667 8C2.66667 5.05933 5.05933 2.66667 8 2.66667C10.9407 2.66667 13.3333 5.05933 13.3333 8C13.3333 10.9407 10.9407 13.3333 8 13.3333Z" fill="var(--fill-0, white)"/>
</g>
<defs>
<clipPath id="clip0_0_21">
<rect width="16" height="16" fill="white"/>
</clipPath>
</defs>
</svg>
