<svg preserveAspectRatio="none" width="100%" height="100%" overflow="visible" style="display: block;" viewBox="0 0 16 16" fill="none" xmlns="http://www.w3.org/2000/svg">
<g id="multiple-alt 1" clip-path="url(#clip0_0_4)">
<path id="Vector" d="M3.33333 2C2.598 2 2 2.598 2 3.33333V7.66667C2 8.21933 1.55267 8.66667 1 8.66667C0.447333 8.66667 0 8.21933 0 7.66667V3.33333C0 1.49533 1.49533 0 3.33333 0H7.66667C8.21933 0 8.66667 0.447333 8.66667 1C8.66667 1.55267 8.21933 2 7.66667 2H3.33333ZM16 9.66667V13C16 14.654 14.654 16 13 16H9.66667C8.01267 16 6.66667 14.654 6.66667 13V9.66667C6.66667 8.01267 8.01267 6.66667 9.66667 6.66667H13C14.654 6.66667 16 8.01267 16 9.66667ZM14 9.66667C14 9.11533 13.5513 8.66667 13 8.66667H9.66667C9.11533 8.66667 8.66667 9.11533 8.66667 9.66667V13C8.66667 13.5513 9.11533 14 9.66667 14H13C13.5513 14 14 13.5513 14 13V9.66667ZM11 5.33333C11.5527 5.33333 12 4.886 12 4.33333C12 3.78067 11.5527 3.33333 11 3.33333H6.66667C4.82867 3.33333 3.33333 4.82867 3.33333 6.66667V11C3.33333 11.5527 3.78067 12 4.33333 12C4.886 12 5.33333 11.5527 5.33333 11V6.66667C5.33333 5.93133 5.93133 5.33333 6.66667 5.33333H11Z" fill="var(--fill-0, white)"/>
</g>
<defs>
<clipPath id="clip0_0_4">
<rect width="16" height="16" fill="white"/>
</clipPath>
</defs>
</svg>
