<svg preserveAspectRatio="none" width="100%" height="100%" overflow="visible" style="display: block;" viewBox="0 0 16 16" fill="none" xmlns="http://www.w3.org/2000/svg">
<g id="shield-security-risk (1) 1" clip-path="url(#clip0_0_6)">
<path id="Vector" d="M6.94 13.6767C7.15467 14.324 7.48733 14.9167 7.91667 15.4273C7.67867 15.5393 7.46867 15.6307 7.30467 15.6967L6.624 15.9713L5.96733 15.642C4.56733 14.942 0 12.3193 0 7.976V3.868C0 2.89467 0.622 2.034 1.54733 1.72667L6.66667 0.03L11.786 1.72667C12.712 2.034 13.3333 2.89467 13.3333 3.868V6.84133C12.9067 6.73133 12.4613 6.66667 12 6.66667C11.774 6.66667 11.552 6.68533 11.3333 6.71267V3.868C11.3333 3.756 11.264 3.66067 11.156 3.62533L6.66667 2.13733L2.17733 3.62533C2.07133 3.66067 2 3.758 2 3.868V7.976C2 11.0447 5.428 13.1113 6.712 13.7773C6.78133 13.748 6.85933 13.7133 6.94 13.6767ZM16 12C16 14.2093 14.2093 16 12 16C9.79067 16 8 14.2093 8 12C8 9.79067 9.79067 8 12 8C14.2093 8 16 9.79067 16 12ZM12.6667 13.3333H11.3333V14.6667H12.6667V13.3333ZM12.6667 9.33333H11.3333V12.6667H12.6667V9.33333Z" fill="var(--fill-0, white)"/>
</g>
<defs>
<clipPath id="clip0_0_6">
<rect width="16" height="16" fill="white"/>
</clipPath>
</defs>
</svg>
