<svg preserveAspectRatio="xMidYMid meet" width="118" height="24" overflow="visible" style="display: block;" viewBox="0 0 118 24.0001" fill="none" xmlns="http://www.w3.org/2000/svg">
<g id="Group 26">
<path id="Vector" d="M50.1265 5.55366e-05C43.9344 5.55366e-05 42.7612 5.78923 42.7612 5.78923L41 18.7349L46.3454 23.5001L46.3365 14.6945L44.1284 12.9457L44.1931 9.04326L49.5 11.7374L51 11.7374L56.1246 9.04619L56.1393 12.9487L53.9077 14.7004L54.1047 23.4825L59.5 18.7907L57.3007 5.26988C57.3007 5.26988 56.3216 5.55366e-05 50.1265 5.55366e-05Z" fill="var(--fill-0, white)"/>
<path id="Vector_2" d="M48.9998 15.6148L50.2723 17.5001L51.4998 15.6148L50.9998 11.7374H49.4998L48.9998 15.6148Z" fill="var(--fill-0, white)"/>
<path id="Vector_3" d="M17.5 16.105C17.5 13.6235 16.4458 11.4245 14.7498 10.3059C13.4924 9.50227 12.7315 9.22262 9.1014 8.31596C7.43445 7.89795 6.93495 7.51233 6.93495 6.63805C6.93495 5.76377 7.66678 5.17208 8.86617 5.17208C10.5041 5.17208 11.4421 5.86974 11.9968 7.51233L16.9715 5.73139C15.714 1.92224 13.0219 0 9.01427 0C4.15574 0 0.9961 3.04084 0.9961 7.65068C0.9961 10.0969 1.9922 12.1575 3.71723 13.2054C5.00373 14.0091 6.67358 14.639 9.04331 15.1983C10.8003 15.584 11.413 16.0726 11.413 17.0499C11.413 18.0272 10.6231 18.5159 9.18852 18.5159C7.14114 18.5159 6.17408 17.7476 5.55841 15.7223L0 16.9086C0.496598 18.9692 0.9961 20.0172 1.9893 21.1711C3.65624 23.058 5.90981 24 8.75 24C14.018 24 17.5 20.8561 17.5 16.105Z" fill="var(--fill-0, white)"/>
<path id="Vector_4" d="M30.2646 0.500016H22.0001V23.5H28.0238V15.1554H31.3994C35.676 15.1554 38.5001 12.2237 38.5001 7.84514C38.5001 5.63695 37.6858 3.6031 36.346 2.32758C34.9195 1.0172 33.262 0.500016 30.2646 0.500016ZM29.944 10.2248H27.966V5.77642H30.1202C31.7488 5.77642 32.5631 6.49989 32.5631 7.94974C32.5631 9.50128 31.7488 10.2248 29.944 10.2248Z" fill="var(--fill-0, white)"/>
<path id="Vector_5" d="M77.9596 13.4993C80.4985 12.0175 81.4414 10.3962 81.4414 7.49942C81.4414 3.12082 78.7561 0.500056 74.2991 0.500056H64V23.5001H70.05V14.74H71.9388L74.8321 23.5001H81.5L77.9596 13.4993ZM72.6182 9.8093H70.05V5.39584H72.8232C74.2991 5.39584 75.1542 6.22391 75.1542 7.60402C75.1542 8.98414 74.2405 9.81221 72.6153 9.81221L72.6182 9.8093Z" fill="var(--fill-0, white)"/>
<path id="Vector_6" d="M89.1087 23.5H94.8879V6.01758H98.9998V0.500016H84.9998V6.01758H89.1087V23.5Z" fill="var(--fill-0, white)"/>
<path id="Vector_7" d="M111.873 0.500016H105.54L99.5001 23.5H104.367L105.54 18.982H110.788L111.873 23.5H118L111.873 0.500016ZM106.567 13.9816L108.149 7.29309L109.732 13.9816H106.567Z" fill="var(--fill-0, white)"/>
</g>
</svg>
