<svg preserveAspectRatio="none" width="100%" height="100%" overflow="visible" style="display: block;" viewBox="0 0 16 13.2591" fill="none" xmlns="http://www.w3.org/2000/svg">
<path id="Vector" opacity="0.5" d="M15.9928 1.15013C15.7706 3.47947 14.812 9.13411 14.3237 11.7424C14.1177 12.8471 13.7105 13.2169 13.3164 13.2526C12.4615 13.3305 11.8111 12.6865 10.9822 12.1431C9.68612 11.2931 8.95293 10.7643 7.69418 9.9338C6.23916 8.97514 7.1816 8.44796 8.01211 7.58662C8.22785 7.36115 11.9992 3.93203 12.0722 3.62221C12.082 3.58328 12.0901 3.43891 12.0041 3.36105C11.9181 3.28319 11.79 3.31077 11.6991 3.33186C11.5694 3.36105 9.49796 4.73011 5.48488 7.44064C4.89768 7.84454 4.36401 8.04081 3.88711 8.03108C3.36155 8.01972 2.34936 7.73261 1.59671 7.4893C0.673735 7.18921 -0.0594543 7.03024 0.00380755 6.52253C0.0378716 6.2565 0.402843 5.98561 1.10035 5.70823C5.39567 3.83633 8.25867 2.60353 9.69261 2.0066C13.7852 0.305018 14.6351 0.00817309 15.1883 6.25957e-05C15.3099 -0.0015595 15.5825 0.0276391 15.7593 0.170384C15.9085 0.290419 15.949 0.454252 15.9685 0.569421C15.988 0.68459 16.0123 0.945748 15.9928 1.15013Z" fill="var(--fill-0, white)"/>
</svg>
